<?xml version="1.0" encoding="utf-8"?>
<!-- Generator: Adobe Illustrator 23.0.2, SVG Export Plug-In . SVG Version: 6.00 Build 0)  -->
<svg version="1.1" id="Layer_4" xmlns="http://www.w3.org/2000/svg" xmlns:xlink="http://www.w3.org/1999/xlink" x="0px" y="0px"
	 viewBox="0 0 2676.3 2127.7" style="enable-background:new 0 0 2676.3 2127.7;" xml:space="preserve">
<style type="text/css">
	.st0{fill:none;}
	.st1{fill:#FFDF25;}
	.st2{fill:#00A14B;}
	.st3{fill:#EC1C24;}
	.st4{fill:#F16522;}
	.st5{fill:#231F20;}
	.st6{fill:#73FFA3;}
	.st7{fill:#224099;}
	.st8{fill:#4EFA9E;}
	.st9{fill:#85E700;}
	.st10{fill:#1B75BB;}
	.st11{fill:#A3E5FF;}
	.st12{fill:#25A9E0;}
	.st13{fill:#7F3F97;}
	.st14{fill:#00ADEE;}
	.st15{fill:url(#SVGID_1_);}
</style>
<pattern  x="6211.9" y="4223" width="510.2" height="294.8" patternUnits="userSpaceOnUse" id="New_Pattern_9" viewBox="169.3 -393.5 510.2 294.8" style="overflow:visible;">
	<g>
		<rect x="169.3" y="-393.5" class="st0" width="510.2" height="294.8"/>
		<g>
			<g>
				<rect x="637.8" y="-123.2" class="st1" width="85" height="98.4"/>
				<polygon class="st2" points="595.3,-49.5 680.3,0 680.5,-98.5 595.3,-147.8 				"/>
				<polygon class="st3" points="595.3,-93.4 680.3,-43.9 722.8,-123.2 637.4,-172.4 				"/>
				<polygon class="st4" points="595.3,-147.8 680.5,-98.5 765.4,-147.8 680.3,-197.1 				"/>
				<line class="st5" x1="595.1" y1="-147.8" x2="680.5" y2="-98.5"/>
			</g>
			<g>
				<polygon class="st1" points="510.1,0 595.1,-49.5 595.1,-147.8 510.2,-98.5 				"/>
				<rect x="467.6" y="-123.2" class="st6" width="85" height="98.4"/>
				<polygon class="st7" points="425.1,-49.5 510.1,0 510.2,-98.5 425.1,-147.8 				"/>
				<polygon class="st8" points="425.1,-93.4 510.1,-43.9 552.6,-123.2 467.1,-172.4 				"/>
				<polygon class="st9" points="425.1,-147.8 510.2,-98.5 595.1,-147.8 510.1,-197.1 				"/>
				<line class="st5" x1="424.9" y1="-147.8" x2="510.2" y2="-98.5"/>
			</g>
		</g>
		<g>
			<g>
				<polygon class="st10" points="340.2,0 425.2,-49.5 425.2,-147.8 340.3,-98.5 				"/>
				<rect x="297.6" y="-123.2" class="st11" width="85" height="98.4"/>
				<polygon class="st12" points="255.1,-49.5 340.2,0 340.3,-98.5 255.1,-147.8 				"/>
				<polygon class="st13" points="255.1,-93.4 340.2,-43.9 382.7,-123.2 297.2,-172.4 				"/>
				<polygon class="st7" points="255.1,-147.8 340.3,-98.5 425.2,-147.8 340.2,-197.1 				"/>
				<line class="st5" x1="255" y1="-147.8" x2="340.3" y2="-98.5"/>
			</g>
			<g>
				<polygon class="st14" points="170.1,0 255.1,-49.5 255.1,-147.8 170.2,-98.5 				"/>
				<rect x="127.6" y="-123.2" class="st1" width="85" height="98.4"/>
				<polygon class="st2" points="85,-49.5 170.1,0 170.2,-98.5 85,-147.8 				"/>
				<polygon class="st3" points="85,-93.4 170.1,-43.9 212.6,-123.2 127.1,-172.4 				"/>
				<polygon class="st4" points="85,-147.8 170.2,-98.5 255.1,-147.8 170.1,-197.1 				"/>
				<line class="st5" x1="84.9" y1="-147.8" x2="170.2" y2="-98.5"/>
			</g>
		</g>
		<g>
			<g>
				<polygon class="st10" points="595.3,-147.4 680.3,-196.9 680.3,-295.2 595.4,-245.9 				"/>
				<rect x="552.8" y="-270.6" class="st11" width="85" height="98.4"/>
				<polygon class="st12" points="510.2,-196.9 595.3,-147.4 595.4,-245.9 510.2,-295.2 				"/>
				<polygon class="st13" points="510.2,-240.8 595.3,-191.3 637.8,-270.6 552.3,-319.8 				"/>
				<polygon class="st7" points="510.2,-295.2 595.4,-245.9 680.3,-295.2 595.3,-344.5 				"/>
				<line class="st5" x1="510.1" y1="-295.2" x2="595.4" y2="-245.9"/>
			</g>
			<g>
				<polygon class="st14" points="425.2,-147.4 510.2,-196.9 510.2,-295.2 425.3,-245.9 				"/>
				<rect x="382.7" y="-270.6" class="st1" width="85" height="98.4"/>
				<polygon class="st2" points="340.2,-196.9 425.2,-147.4 425.3,-245.9 340.2,-295.2 				"/>
				<polygon class="st3" points="340.2,-240.8 425.2,-191.3 467.7,-270.6 382.2,-319.8 				"/>
				<polygon class="st4" points="340.2,-295.2 425.3,-245.9 510.2,-295.2 425.2,-344.5 				"/>
				<line class="st5" x1="340" y1="-295.2" x2="425.3" y2="-245.9"/>
			</g>
			<g>
				<polygon class="st1" points="255,-147.4 340,-196.9 340,-295.2 255.1,-245.9 				"/>
				<rect x="212.5" y="-270.6" class="st6" width="85" height="98.4"/>
				<polygon class="st7" points="169.9,-196.9 255,-147.4 255.1,-245.9 169.9,-295.2 				"/>
				<polygon class="st8" points="169.9,-240.8 255,-191.3 297.5,-270.6 212,-319.8 				"/>
				<polygon class="st9" points="169.9,-295.2 255.1,-245.9 340,-295.2 255,-344.5 				"/>
				<line class="st5" x1="169.8" y1="-295.2" x2="255.1" y2="-245.9"/>
			</g>
		</g>
		<g>
			<g>
				<polygon class="st10" points="85,-147.4 170.1,-196.9 170.1,-295.2 85.2,-245.9 				"/>
				<polygon class="st7" points="0,-295.2 85.2,-245.9 170.1,-295.2 85,-344.5 				"/>
			</g>
		</g>
		<g>
			<g>
				<rect x="637.8" y="-418" class="st1" width="85" height="98.4"/>
				<polygon class="st2" points="595.3,-344.3 680.3,-294.8 680.5,-393.3 595.3,-442.6 				"/>
				<polygon class="st3" points="595.3,-388.2 680.3,-338.7 722.8,-418 637.4,-467.2 				"/>
				<polygon class="st4" points="595.3,-442.6 680.5,-393.3 765.4,-442.6 680.3,-491.9 				"/>
				<line class="st5" x1="595.1" y1="-442.6" x2="680.5" y2="-393.3"/>
			</g>
			<g>
				<polygon class="st1" points="510.1,-294.8 595.1,-344.3 595.1,-442.6 510.2,-393.3 				"/>
				<rect x="467.6" y="-418" class="st6" width="85" height="98.4"/>
				<polygon class="st7" points="425.1,-344.3 510.1,-294.8 510.2,-393.3 425.1,-442.6 				"/>
				<polygon class="st8" points="425.1,-388.2 510.1,-338.7 552.6,-418 467.1,-467.2 				"/>
				<polygon class="st9" points="425.1,-442.6 510.2,-393.3 595.1,-442.6 510.1,-491.9 				"/>
				<line class="st5" x1="424.9" y1="-442.6" x2="510.2" y2="-393.3"/>
			</g>
		</g>
		<g>
			<g>
				<polygon class="st10" points="340.2,-294.8 425.2,-344.3 425.2,-442.6 340.3,-393.3 				"/>
				<rect x="297.6" y="-418" class="st11" width="85" height="98.4"/>
				<polygon class="st12" points="255.1,-344.3 340.2,-294.8 340.3,-393.3 255.1,-442.6 				"/>
				<polygon class="st13" points="255.1,-388.2 340.2,-338.7 382.7,-418 297.2,-467.2 				"/>
				<polygon class="st7" points="255.1,-442.6 340.3,-393.3 425.2,-442.6 340.2,-491.9 				"/>
				<line class="st5" x1="255" y1="-442.6" x2="340.3" y2="-393.3"/>
			</g>
			<g>
				<polygon class="st14" points="170.1,-294.8 255.1,-344.3 255.1,-442.6 170.2,-393.3 				"/>
				<rect x="127.6" y="-418" class="st1" width="85" height="98.4"/>
				<polygon class="st2" points="85,-344.3 170.1,-294.8 170.2,-393.3 85,-442.6 				"/>
				<polygon class="st3" points="85,-388.2 170.1,-338.7 212.6,-418 127.1,-467.2 				"/>
				<polygon class="st4" points="85,-442.6 170.2,-393.3 255.1,-442.6 170.1,-491.9 				"/>
				<line class="st5" x1="84.9" y1="-442.6" x2="170.2" y2="-393.3"/>
			</g>
		</g>
	</g>
</pattern>
<pattern  id="SVGID_1_" xlink:href="#New_Pattern_9" patternTransform="matrix(1 0 0 1 159.8244 -406.1056)">
</pattern>
<rect class="st15" width="2676.3" height="2127.7"/>
</svg>
